#!OML:ASF F:\VICON\USERDATA\INSTALL\rory3\rory3.ASF
:FULLY-SPECIFIED
:DEGREES
521
root -7.61191 18.1458 -15.4351 18.9761 46.7899 5.64955
lowerback -6.31025 -1.10823 -0.865019
upperback -1.52039 -1.39681 -0.392312
thorax 1.98115 -0.693986 -0.0281905
lowerneck -18.4634 -2.25284 1.17423
upperneck 15.1957 -3.18307 -1.01919
head 7.68115 -1.54414 -0.903734
rclavicle -1.26725e-014 9.93923e-015
rhumerus -31.1731 11.1204 -93.9352
rradius 30.7138
rwrist 3.47794
rhand -18.744 10.1578
rfingers 7.12502
rthumb 7.55226 -19.6874
lclavicle -1.26725e-014 9.93923e-015
lhumerus -42.7628 -4.8641 85.0993
lradius 27.8918
lwrist 5.0699
lhand -5.17551 26.294
lfingers 7.12502
lthumb 20.6248 55.2182
rfemur -18.826 -10.4282 21.216
rtibia 26.296
rfoot -25.0017 12.7847
rtoes -6.08091
lfemur -37.5542 -0.563374 -18.8047
ltibia 45.6258
lfoot -16.1145 -3.95436
ltoes -20.6621
522
root -7.61042 18.1403 -15.4193 18.6369 46.5057 5.23776
lowerback -6.22342 -1.06997 -0.593195
upperback -1.46816 -1.36712 -0.301416
thorax 1.98221 -0.67872 -0.0836953
lowerneck -18.5932 -2.14576 1.28053
upperneck 15.278 -3.02614 -1.23554
head 7.72724 -1.48438 -0.976994
rclavicle 1.86858e-014 5.56597e-015
rhumerus -30.9906 10.5451 -93.6752
rradius 30.056
rwrist 4.06195
rhand -18.7447 10.486
rfingers 7.12502
rthumb 7.55156 -19.3592
lclavicle 1.86858e-014 5.56597e-015
lhumerus -42.8714 -4.33115 84.8264
lradius 27.7534
lwrist 4.5916
lhand -4.763 26.443
lfingers 7.12502
lthumb 21.0211 55.3237
rfemur -18.7814 -10.2361 21.485
rtibia 26.3498
rfoot -25.0168 12.8371
rtoes -6.10639
lfemur -37.9019 -0.111777 -18.6902
ltibia 46.621
lfoot -15.9087 -3.86608
ltoes -20.7473
523
root -7.6068 18.1336 -15.4023 18.4099 46.1405 5.00549
lowerback -6.11461 -1.00213 -0.423533
upperback -1.43723 -1.28956 -0.274313
thorax 1.95001 -0.639658 -0.143163
lowerneck -18.5798 -2.06981 1.26667
upperneck 15.2851 -2.90373 -1.31315
head 7.72802 -1.43479 -0.985945
rclavicle -6.11263e-014 1.98785e-015
rhumerus -30.7968 9.90607 -93.4515
rradius 29.3209
rwrist 4.5234
rhand -18.7842 10.5315
rfingers 7.12502
rthumb 7.51349 -19.3151
lclavicle -6.11263e-014 1.98785e-015
lhumerus -42.9706 -4.17828 84.7154
lradius 27.5405
lwrist 4.48575
lhand -4.4109 26.3154
lfingers 7.12502
lthumb 21.3593 55.1582
rfemur -18.7097 -9.92255 21.5752
rtibia 26.4124
rfoot -24.9792 12.9482
rtoes -5.61924
lfemur -38.2103 0.33144 -18.7443
ltibia 47.5848
lfoot -15.696 -3.73645
ltoes -21.0611
524
root -7.60123 18.1269 -15.3831 18.5048 45.7848 5.22743
lowerback -6.04773 -0.992603 -0.612236
upperback -1.37708 -1.26524 -0.303847
thorax 1.97797 -0.628669 -0.0652942
lowerneck -18.5757 -2.00675 1.28255
upperneck 15.2943 -2.80412 -1.40599
head 7.73014 -1.39581 -1.0076
rclavicle 2.93207e-015 9.54166e-015
rhumerus -30.5936 9.38405 -93.2376
rradius 28.6766
rwrist 4.82724
rhand -18.7678 10.412
rfingers 7.12502
rthumb 7.52928 -19.434
lclavicle 2.93207e-015 9.54166e-015
lhumerus -43.0172 -4.23852 84.7735
lradius 27.3392
lwrist 4.54893
lhand -4.26678 26.0216
lfingers 7.12502
lthumb 21.4978 54.8487
rfemur -18.6042 -9.73472 21.3368
rtibia 26.4194
rfoot -24.8919 12.9296
rtoes -5.41016
lfemur -38.5066 0.599557 -19.128
ltibia 48.5043
lfoot -15.5073 -3.59167
ltoes -21.2168
525
root -7.59216 18.1281 -15.3633 18.4939 45.5364 5.3111
lowerback -6.00037 -0.987556 -0.616401
upperback -1.28442 -1.258 -0.347611
thorax 2.04595 -0.625595 -0.107569
lowerneck -18.6695 -1.91498 1.39415
upperneck 15.3396 -2.68656 -1.53025
head 7.75961 -1.34563 -1.05486
rclavicle -1.57537e-014 3.97569e-015
rhumerus -30.2769 8.68766 -92.9879
rradius 27.8809
rwrist 5.48871
rhand -18.7972 10.7024
rfingers 7.12502
rthumb 7.50092 -19.1446
lclavicle -1.57537e-014 3.97569e-015
lhumerus -42.9919 -4.46098 84.8683
lradius 27.1826
lwrist 4.69271
lhand -4.2989 25.7901
lfingers 7.12502
lthumb 21.4669 54.6207
rfemur -18.4794 -9.84679 21.2399
rtibia 26.4117
rfoot -24.738 13.1793
rtoes -5.28289
lfemur -38.8369 0.779196 -19.3765
ltibia 49.3932
lfoot -15.2886 -3.55961
ltoes -21.2618
526
root -7.58391 18.1343 -15.3408 18.4582 45.2252 5.32627
lowerback -5.95102 -0.940938 -0.593618
upperback -1.21862 -1.19642 -0.412734
thorax 2.08404 -0.594997 -0.18238
lowerneck -18.6725 -1.84673 1.48526
upperneck 15.3431 -2.60421 -1.60373
head 7.76032 -1.30847 -1.08436
rclavicle 4.01048e-014 -7.55382e-015
rhumerus -30.0372 7.97097 -92.7363
rradius 27.1073
rwrist 6.28743
rhand -18.7712 11.1408
rfingers 7.12502
rthumb 7.52596 -18.7053
lclavicle 4.01048e-014 -7.55382e-015
lhumerus -42.9848 -4.70239 84.9173
lradius 27.0702
lwrist 4.61041
lhand -4.38919 25.8824
lfingers 7.12502
lthumb 21.3802 54.7228
rfemur -18.3875 -9.8018 21.1778
rtibia 26.4461
rfoot -24.7308 13.3276
rtoes -5.58618
lfemur -39.2402 1.00047 -19.5662
ltibia 50.2392
lfoot -14.9817 -3.70143
ltoes -19.9285
527
root -7.57608 18.1306 -15.319 18.3949 44.9275 5.34587
lowerback -5.84627 -0.91746 -0.66635
upperback -1.16488 -1.1621 -0.407011
thorax 2.08237 -0.578657 -0.131853
lowerneck -18.6545 -1.77268 1.55499
upperneck 15.3583 -2.50127 -1.71042
head 7.76164 -1.26605 -1.11885
rclavicle -5.27276e-014 4.37326e-015
rhumerus -29.8407 7.36554 -92.4271
rradius 26.3947
rwrist 6.98443
rhand -18.7563 11.371
rfingers 7.12502
rthumb 7.54035 -18.4746
lclavicle -5.27276e-014 4.37326e-015
lhumerus -43.056 -5.10223 85.2043
lradius 27.1213
lwrist 4.6296
lhand -4.56157 26.1281
lfingers 7.12502
lthumb 21.2146 54.9872
rfemur -18.2462 -9.49762 21.0854
rtibia 26.4756
rfoot -24.8135 13.2468
rtoes -5.44879
lfemur -39.5729 1.13868 -19.7678
ltibia 51.0392
lfoot -14.726 -3.6635
ltoes -19.0861
528
root -7.56353 18.1202 -15.3015 18.3971 44.759 5.47513
lowerback -5.74173 -0.92523 -0.682523
upperback -1.07365 -1.17207 -0.436647
thorax 2.11758 -0.584205 -0.153157
lowerneck -18.821 -1.72548 1.45624
upperneck 15.5452 -2.41963 -1.66735
head 7.85596 -1.22783 -1.08329
rclavicle -4.59193e-014 3.02153e-014
rhumerus -29.5199 6.59579 -92.067
rradius 25.5997
rwrist 7.7498
rhand -18.7795 11.5376
rfingers 7.12502
rthumb 7.51794 -18.3088
lclavicle -4.59193e-014 3.02153e-014
lhumerus -42.9851 -5.69651 85.599
lradius 27.1127
lwrist 4.80237
lhand -4.83093 26.4015
lfingers 7.12502
lthumb 20.9558 55.2895
rfemur -18.1117 -9.63421 20.9466
rtibia 26.5447
rfoot -24.879 13.3608
rtoes -5.26261
lfemur -39.8272 1.21947 -20.1057
ltibia 51.7802
lfoot -14.5849 -3.5313
ltoes -19.494
529
root -7.55078 18.1128 -15.281 18.3943 44.5541 5.51211
lowerback -5.71592 -0.918578 -0.64718
upperback -1.02049 -1.16523 -0.455836
thorax 2.15673 -0.580824 -0.192313
lowerneck -18.9075 -1.68164 1.27328
upperneck 15.7393 -2.32637 -1.57992
head 7.94085 -1.18458 -1.01666
rclavicle 2.18166e-014 -2.98177e-014
rhumerus -29.2528 5.68472 -91.6712
rradius 24.7832
rwrist 8.75176
rhand -18.7757 11.8156
rfingers 7.12502
rthumb 7.52161 -18.0306
lclavicle 2.18166e-014 -2.98177e-014
lhumerus -42.9432 -6.50859 86.1132
lradius 27.0598
lwrist 5.29279
lhand -5.19298 26.5782
lfingers 7.12502
lthumb 20.608 55.5042
rfemur -18.0749 -9.7511 20.8842
rtibia 26.6707
rfoot -24.9084 13.536
rtoes -5.18125
lfemur -40.1373 1.34886 -20.3749
ltibia 52.449
lfoot -14.3832 -3.54619
ltoes -19.132
